<?xml version="1.0" encoding="utf-8"?>
<!-- Generator: Adobe Illustrator 24.0.2, SVG Export Plug-In . SVG Version: 6.00 Build 0)  -->
<svg version="1.1" id="Layer_3" xmlns="http://www.w3.org/2000/svg" xmlns:xlink="http://www.w3.org/1999/xlink" x="0px" y="0px"
	 viewBox="0 0 60 60" style="enable-background:new 0 0 60 60;" xml:space="preserve">
<path d="M53.91,17.43l-1.59-3.93c-0.23-0.88-1.03-1.5-1.95-1.5H9.63c-0.92,0-1.72,0.62-1.95,1.5l-1.59,3.93
	c-0.02,0.06-0.04,0.12-0.05,0.18c-0.12,0.59,0.03,1.19,0.41,1.66c0.17,0.2,0.37,0.36,0.6,0.49l1.82,25.47
	C8.98,46.78,10.3,48,11.86,48h36.28c1.57,0,2.88-1.22,2.99-2.79l1.82-25.47c0.23-0.12,0.43-0.28,0.6-0.49
	c0.38-0.46,0.53-1.07,0.41-1.66C53.95,17.55,53.93,17.49,53.91,17.43z M9.56,14.18c0.02-0.06,0.05-0.12,0.06-0.18l40.76,0
	c0.01,0.06,0.03,0.12,0.05,0.18L51.98,18H8.02L9.56,14.18z M39.16,20l4.64,26H16.19l4.64-26H39.16z M10.86,45.07L9.07,20h9.73
	l-4.64,26h-2.3C11.34,46,10.9,45.59,10.86,45.07z M49.14,45.07c-0.04,0.52-0.48,0.93-1,0.93h-2.3l-4.64-26h9.73L49.14,45.07z"/>
<path d="M25.22,29.88c0.24,0,0.49-0.09,0.68-0.27C27.02,28.57,28.47,28,30,28c0.7,0,1.38,0.12,2.03,0.35l-1.16,0.37
	c-0.53,0.17-0.81,0.73-0.64,1.26c0.14,0.42,0.53,0.69,0.95,0.69c0.1,0,0.21-0.02,0.31-0.05l3.28-1.06c0.33-0.11,0.54-0.37,0.63-0.68
	c0-0.01,0-0.01,0.01-0.02c0.03-0.1,0.04-0.21,0.03-0.32c0-0.04-0.01-0.07-0.01-0.11c-0.01-0.04,0-0.09-0.02-0.13l-1.06-3.28
	c-0.17-0.53-0.73-0.81-1.26-0.64c-0.53,0.17-0.81,0.73-0.64,1.26l0.27,0.84C31.86,26.17,30.93,26,30,26c-2.03,0-3.97,0.76-5.46,2.15
	c-0.4,0.38-0.42,1.01-0.05,1.41C24.69,29.78,24.96,29.88,25.22,29.88z"/>
<path d="M20.12,36.13c0.19,0.17,0.43,0.26,0.67,0.26c0.27,0,0.54-0.11,0.74-0.33l0.59-0.65c0.16,0.91,0.48,1.79,0.95,2.6
	c1.02,1.76,2.65,3.06,4.59,3.65c0.1,0.03,0.2,0.04,0.29,0.04c0.43,0,0.83-0.28,0.96-0.71c0.16-0.53-0.14-1.09-0.66-1.25
	c-1.46-0.44-2.68-1.42-3.44-2.74c-0.35-0.6-0.59-1.26-0.71-1.93l0.9,0.81c0.41,0.37,1.04,0.34,1.41-0.07
	c0.37-0.41,0.34-1.04-0.07-1.41l-2.56-2.31c-0.25-0.23-0.59-0.29-0.91-0.21c-0.01,0-0.02,0-0.02,0.01c-0.1,0.03-0.19,0.07-0.28,0.13
	c-0.04,0.02-0.07,0.05-0.1,0.07c-0.03,0.03-0.07,0.04-0.1,0.07l-2.31,2.56C19.68,35.12,19.71,35.76,20.12,36.13z"/>
<path d="M35.2,37c-0.35,0.6-0.8,1.14-1.32,1.58l0.25-1.19c0.12-0.54-0.23-1.07-0.77-1.19c-0.54-0.12-1.07,0.23-1.19,0.77l-0.72,3.37
	c-0.06,0.26-0.01,0.53,0.14,0.75c0.11,0.18,0.29,0.29,0.48,0.37c0.03,0.01,0.07,0.03,0.1,0.04c0.02,0,0.03,0.02,0.05,0.02l3.38,0.72
	c0.07,0.02,0.14,0.02,0.21,0.02c0.46,0,0.88-0.32,0.98-0.79c0.12-0.54-0.23-1.07-0.77-1.19l-0.86-0.18
	c0.71-0.59,1.31-1.31,1.78-2.12c1.02-1.76,1.32-3.82,0.87-5.8c-0.13-0.54-0.66-0.87-1.2-0.75c-0.54,0.12-0.87,0.66-0.75,1.2
	C36.19,34.13,35.96,35.68,35.2,37z"/>
</svg>
