<?xml version="1.0" encoding="utf-8"?>
<!-- Generator: Adobe Illustrator 24.0.2, SVG Export Plug-In . SVG Version: 6.00 Build 0)  -->
<svg version="1.1" id="Layer_3" xmlns="http://www.w3.org/2000/svg" xmlns:xlink="http://www.w3.org/1999/xlink" x="0px" y="0px"
	 viewBox="0 0 60 60" style="enable-background:new 0 0 60 60;" xml:space="preserve">
<path d="M46.6,22.19c-3.7,0-8.88,2.86-11.29,4.33c-0.49-0.69-1.02-1.3-1.58-1.8C34.51,24.01,35,23.1,35,22.08
	c0-1.57-1.15-2.92-2.79-3.57c0.28-0.85,0.86-2.14,1.99-2.92c0.95-0.65,2.16-0.83,3.6-0.53c0.54,0.11,1.07-0.23,1.18-0.77
	c0.11-0.54-0.23-1.07-0.77-1.18c-2-0.42-3.73-0.13-5.16,0.85c-1.69,1.17-2.48,3.03-2.81,4.15c-0.08,0-0.16-0.02-0.24-0.02
	s-0.16,0.02-0.24,0.02c-0.34-1.11-1.12-2.98-2.81-4.15c-1.42-0.98-3.15-1.27-5.16-0.85c-0.54,0.11-0.89,0.64-0.77,1.18
	c0.11,0.54,0.64,0.89,1.18,0.77c1.44-0.3,2.65-0.12,3.6,0.53c1.13,0.78,1.71,2.07,1.99,2.92c-1.65,0.65-2.79,2-2.79,3.57
	c0,1.01,0.49,1.93,1.27,2.64c-0.56,0.51-1.09,1.12-1.58,1.8c-2.41-1.47-7.59-4.33-11.29-4.33c-4.63,0-7.4,2.17-7.4,5.8
	c0,2.51,1.32,4.4,3.64,5.33c-0.08,1.09,0.28,2.21,1.06,3.27c1.01,1.38,2.66,2.48,4.78,2.48c1.2,0,2.55-0.35,4.02-1.2
	c0.52-0.31,1.05-0.72,1.57-1.24c-0.05,0.5-0.08,0.99-0.08,1.45c0,0.39,0.02,0.76,0.05,1.12c-1.22,0.21-3.11,0.81-3.94,2.46
	c-0.25,0.49-0.05,1.09,0.44,1.34c0.15,0.07,0.3,0.11,0.45,0.11c0.36,0,0.72-0.2,0.89-0.55c0.44-0.86,1.64-1.25,2.52-1.4
	c0.15,0.53,0.34,1.04,0.58,1.5c-0.82,0.34-1.63,0.99-1.95,2.14c-0.15,0.53,0.16,1.08,0.69,1.23c0.09,0.03,0.18,0.04,0.27,0.04
	c0.44,0,0.84-0.29,0.96-0.73c0.19-0.67,0.79-0.89,1.2-0.97c1.56,1.73,3.9,2.7,6.84,2.7s5.28-0.97,6.84-2.7
	c0.4,0.08,1.01,0.31,1.2,0.97c0.12,0.44,0.53,0.73,0.96,0.73c0.09,0,0.18-0.01,0.27-0.04c0.53-0.15,0.84-0.7,0.69-1.23
	c-0.32-1.15-1.14-1.8-1.95-2.14c0.23-0.47,0.42-0.97,0.58-1.5c0.89,0.15,2.09,0.54,2.52,1.4c0.18,0.35,0.53,0.55,0.89,0.55
	c0.15,0,0.31-0.03,0.45-0.11c0.49-0.25,0.69-0.85,0.44-1.34c-0.84-1.65-2.73-2.24-3.94-2.46c0.03-0.36,0.05-0.74,0.05-1.12
	c0-0.47-0.03-0.96-0.08-1.45c0.53,0.52,1.05,0.93,1.58,1.24c1.47,0.85,2.82,1.2,4.02,1.2c2.12,0,3.77-1.1,4.78-2.48
	c0.78-1.07,1.14-2.18,1.06-3.28C52.68,32.39,54,30.5,54,27.99C54,24.36,51.23,22.19,46.6,22.19z M23.63,33.69
	c4.23-0.8,8.51-0.8,12.73,0c0.4,1.52,0.63,3.04,0.63,4.36c-4.65-1.25-9.35-1.25-14,0C23.01,36.72,23.23,35.21,23.63,33.69z
	 M30,20.08c1.63,0,3,0.92,3,2s-1.37,2-3,2s-3-0.92-3-2S28.37,20.08,30,20.08z M28.13,25.78c0.58,0.19,1.21,0.3,1.87,0.3
	s1.29-0.11,1.87-0.3c0.83,0.59,1.61,1.5,2.29,2.61c0,0.01,0,0.02,0.01,0.02c0,0.01,0.01,0.01,0.01,0.01
	c0.57,0.93,1.07,1.99,1.49,3.1c-3.77-0.6-7.58-0.6-11.35,0c0.42-1.11,0.92-2.17,1.49-3.1c0-0.01,0.01-0.01,0.01-0.01
	c0.01-0.01,0-0.02,0.01-0.02C26.52,27.29,27.29,26.38,28.13,25.78z M8,27.99c0-3.14,2.94-3.8,5.4-3.8c3.1,0,7.78,2.56,10,3.89
	c-2.15,1.29-6.88,3.89-10,3.89c-0.89,0-1.68-0.1-2.36-0.29C8.53,31.01,8,29.31,8,27.99z M18.5,36.14c-3.45,2-5.35,0.4-6.18-0.73
	c-0.4-0.54-0.6-1.06-0.65-1.57c0.55,0.08,1.12,0.13,1.74,0.13c2.76,0,6.34-1.59,9-3.02c-0.15,0.39-0.28,0.79-0.4,1.2
	C20.74,34.17,19.57,35.51,18.5,36.14z M30,45.08c-1.86,0-5.89-0.54-6.81-5.01c4.52-1.28,9.09-1.28,13.61,0
	C35.89,44.54,31.86,45.08,30,45.08z M41.5,36.14c-1.07-0.62-2.25-1.97-3.49-3.99c-0.13-0.4-0.26-0.8-0.4-1.2
	c2.65,1.43,6.23,3.02,9,3.02c0.62,0,1.19-0.05,1.74-0.13c-0.05,0.51-0.26,1.03-0.65,1.57C46.86,36.54,44.95,38.13,41.5,36.14z
	 M48.95,31.69c-0.67,0.19-1.46,0.28-2.35,0.28c-3.12,0-7.85-2.6-10-3.89c2.22-1.33,6.9-3.89,10-3.89c2.46,0,5.4,0.66,5.4,3.8
	C52,29.31,51.47,31.01,48.95,31.69z"/>
</svg>
