<?xml version="1.0" encoding="utf-8"?>
<!-- Generator: Adobe Illustrator 24.0.2, SVG Export Plug-In . SVG Version: 6.00 Build 0)  -->
<svg version="1.1" id="Layer_3" xmlns="http://www.w3.org/2000/svg" xmlns:xlink="http://www.w3.org/1999/xlink" x="0px" y="0px"
	 viewBox="0 0 60 60" style="enable-background:new 0 0 60 60;" xml:space="preserve">
<path d="M28.06,53.4c0.04,0.04,0.08,0.07,0.13,0.11C28.67,53.84,29.34,54,30,54s1.33-0.16,1.81-0.49c0.05-0.03,0.09-0.07,0.13-0.11
	l1.75-1.68C33.89,51.53,34,51.27,34,51v-6h1c0.55,0,1-0.45,1-1v-0.6c0-4.4,1.78-8.73,5-12.21c2.58-2.78,4-6.4,4-10.19
	c0-4.26-1.82-8.34-5-11.18c-3.22-2.88-7.38-4.2-11.71-3.73c-6.72,0.75-12.25,6.14-13.15,12.83c-0.6,4.48,0.79,8.94,3.83,12.22
	C22.21,34.67,24,39.02,24,43.4V44c0,0.55,0.45,1,1,1h1v5.82C25.85,51.28,26.07,51.49,28.06,53.4z M20.44,29.8
	c-2.63-2.85-3.84-6.71-3.32-10.6C17.9,13.4,22.69,8.73,28.51,8.08c3.76-0.42,7.37,0.73,10.16,3.23c2.75,2.46,4.33,6,4.33,9.69
	c0,3.29-1.23,6.42-3.46,8.83C36.06,33.57,34.11,38.23,34,43h-1h-0.86l2.85-18.85c0.06-0.37-0.1-0.74-0.4-0.96s-0.7-0.25-1.04-0.09
	l-3.56,1.78l-3.66-1.78c-0.33-0.16-0.73-0.13-1.03,0.09c-0.3,0.22-0.45,0.59-0.39,0.96L27.84,43H27h-1
	C25.89,38.25,23.93,33.58,20.44,29.8z M29.86,43l-2.69-17.26l2.39,1.16c0.28,0.14,0.61,0.13,0.89,0l2.28-1.14L30.12,43H29.86z
	 M32,45v5.57l-1.37,1.31c-0.3,0.15-0.97,0.15-1.27,0L28,50.57V45H32z"/>
</svg>
