<?xml version="1.0" encoding="utf-8"?>
<!-- Generator: Adobe Illustrator 24.0.2, SVG Export Plug-In . SVG Version: 6.00 Build 0)  -->
<svg version="1.1" id="Layer_3" xmlns="http://www.w3.org/2000/svg" xmlns:xlink="http://www.w3.org/1999/xlink" x="0px" y="0px"
	 viewBox="0 0 60 60" style="enable-background:new 0 0 60 60;" xml:space="preserve">
<path d="M12,41c0.77,0,1.49-0.23,2.1-0.61C17.59,45.73,23.58,49,30,49c3.65,0,7.17-1.04,10.22-3H44v7c0,0.55,0.45,1,1,1s1-0.45,1-1
	v-7h7c0.33,0,0.64-0.16,0.83-0.44s0.22-0.62,0.1-0.93l-5.04-12.6C48.96,31.38,49,30.71,49,30c0-8.33-5.32-15.49-13-18.02
	C35.99,11.44,35.55,11,35,11h-1.14c-0.09-0.36-0.24-0.7-0.42-1.02l0.81-0.81c0.39-0.39,0.39-1.02,0-1.41s-1.02-0.39-1.41,0
	l-0.81,0.81C31.7,8.38,31.36,8.24,31,8.14V7c0-0.55-0.45-1-1-1s-1,0.45-1,1v1.14c-0.36,0.09-0.7,0.24-1.02,0.42l-0.81-0.81
	c-0.39-0.39-1.02-0.39-1.41,0s-0.39,1.02,0,1.41l0.81,0.81c-0.19,0.32-0.33,0.66-0.42,1.02H25c-0.55,0-0.99,0.44-1,0.98
	C16.32,14.51,11,21.67,11,30c0,1.03,0.09,2.06,0.25,3.08C9.4,33.43,8,35.05,8,37C8,39.21,9.79,41,12,41z M46,44v-3.59l1.71-1.71
	c0.39-0.39,0.39-1.02,0-1.41s-1.02-0.39-1.41,0L45,38.59l-1.29-1.29c-0.39-0.39-1.02-0.39-1.41,0s-0.39,1.02,0,1.41L44,40.41V44
	h-5.52L45,27.69L51.52,44H46z M30,14c-1.1,0-2-0.9-2-2s0.9-2,2-2s2,0.9,2,2S31.1,14,30,14z M26.28,13.43
	c0.08,0.21,0.18,0.4,0.29,0.59l-0.81,0.81c-0.39,0.39-0.39,1.02,0,1.41c0.2,0.2,0.45,0.29,0.71,0.29s0.51-0.1,0.71-0.29l0.81-0.81
	c0.32,0.19,0.66,0.33,1.02,0.42V17c0,0.55,0.45,1,1,1s1-0.45,1-1v-1.14c0.36-0.09,0.7-0.24,1.02-0.42l0.81,0.81
	c0.2,0.2,0.45,0.29,0.71,0.29s0.51-0.1,0.71-0.29c0.39-0.39,0.39-1.02,0-1.41l-0.81-0.81c0.11-0.19,0.21-0.38,0.29-0.59
	c6.49,1.44,11.41,6.47,12.84,12.79l-0.63-1.59C45.78,24.25,45.41,24,45,24s-0.78,0.25-0.93,0.63l-8,20
	c-0.12,0.31-0.09,0.66,0.1,0.93c0.05,0.08,0.11,0.14,0.18,0.2C34.35,46.57,32.2,47,30,47c-5.91,0-11.41-3.1-14.49-8.13
	C15.81,38.31,16,37.68,16,37c0-1.73-1.12-3.2-2.66-3.75C13.13,32.18,13,31.09,13,30C13,21.97,18.53,15.15,26.28,13.43z M12,35
	c1.1,0,2,0.9,2,2s-0.9,2-2,2s-2-0.9-2-2S10.9,35,12,35z"/>
<path d="M7,54h10c0.55,0,1-0.45,1-1v-5c0-3.31-2.69-6-6-6s-6,2.69-6,6v5C6,53.55,6.45,54,7,54z M8,48c0-2.21,1.79-4,4-4s4,1.79,4,4
	v4H8V48z"/>
</svg>
