<?xml version="1.0" encoding="utf-8"?>
<!-- Generator: Adobe Illustrator 24.0.2, SVG Export Plug-In . SVG Version: 6.00 Build 0)  -->
<svg version="1.1" id="Layer_3" xmlns="http://www.w3.org/2000/svg" xmlns:xlink="http://www.w3.org/1999/xlink" x="0px" y="0px"
	 viewBox="0 0 60 60" style="enable-background:new 0 0 60 60;" xml:space="preserve">
<path d="M39,34h-4c-0.55,0-1,0.45-1,1v4c0,0.55,0.45,1,1,1h4c0.55,0,1-0.45,1-1v-4C40,34.45,39.55,34,39,34z M38,38h-2v-2h2V38z"/>
<path d="M49,34h-4c-0.55,0-1,0.45-1,1v4c0,0.55,0.45,1,1,1h4c0.55,0,1-0.45,1-1v-4C50,34.45,49.55,34,49,34z M48,38h-2v-2h2V38z"/>
<path d="M39,44h-4c-0.55,0-1,0.45-1,1v4c0,0.55,0.45,1,1,1h4c0.55,0,1-0.45,1-1v-4C40,44.45,39.55,44,39,44z M38,48h-2v-2h2V48z"/>
<path d="M49,44h-4c-0.55,0-1,0.45-1,1v4c0,0.55,0.45,1,1,1h4c0.55,0,1-0.45,1-1v-4C50,44.45,49.55,44,49,44z M48,48h-2v-2h2V48z"/>
<path d="M15,43h-4c-0.55,0-1,0.45-1,1v4c0,0.55,0.45,1,1,1h4c0.55,0,1-0.45,1-1v-4C16,43.45,15.55,43,15,43z M14,47h-2v-2h2V47z"/>
<path d="M27,43h-4c-0.55,0-1,0.45-1,1v4c0,0.55,0.45,1,1,1h4c0.55,0,1-0.45,1-1v-4C28,43.45,27.55,43,27,43z M26,47h-2v-2h2V47z"/>
<path d="M30.04,6.73c-0.69,2.46-4.19,2.33-4.83,2.28c-3.72-1.27-6.25,1.06-7.08,2.48c-0.28,0.48-0.11,1.09,0.36,1.37
	C18.66,12.96,18.83,13,19,13c0.34,0,0.68-0.18,0.87-0.5c0.06-0.11,1.62-2.71,4.79-1.56c0.07,0.03,0.15,0.04,0.23,0.05
	c0.24,0.03,5.86,0.61,7.07-3.72c0.15-0.53-0.16-1.08-0.69-1.23C30.74,5.89,30.19,6.2,30.04,6.73z"/>
<path d="M53,30h-1.06v-5c0-0.36-0.19-0.69-0.51-0.87c-0.31-0.18-0.7-0.17-1.01,0.01L43,28.6V25c0-0.38-0.21-0.73-0.55-0.89
	c-0.34-0.17-0.74-0.13-1.05,0.09L33.67,30H31c-0.55,0-1,0.45-1,1v7h-8V15c0-0.55-0.45-1-1-1h-6c-0.55,0-1,0.45-1,1v23H7
	c-0.55,0-1,0.45-1,1v14c0,0.55,0.45,1,1,1h24h22c0.55,0,1-0.45,1-1V31C54,30.45,53.55,30,53,30z M16,16h4v22h-4V16z M8,40h7h6h9v12
	H8V40z M52,52H32V39v-7h2c0.22,0,0.43-0.07,0.6-0.2L41,27v3.36c0,0.36,0.19,0.69,0.51,0.87c0.31,0.18,0.7,0.17,1.01-0.01l7.43-4.46
	V31c0,0.55,0.45,1,1,1H52V52z"/>
</svg>
