<?xml version="1.0" encoding="utf-8"?>
<!-- Generator: Adobe Illustrator 24.0.2, SVG Export Plug-In . SVG Version: 6.00 Build 0)  -->
<svg version="1.1" id="Layer_3" xmlns="http://www.w3.org/2000/svg" xmlns:xlink="http://www.w3.org/1999/xlink" x="0px" y="0px"
	 viewBox="0 0 60 60" style="enable-background:new 0 0 60 60;" xml:space="preserve">
<path d="M7.33,49.99l17.1,2.95c0.03,0,0.05,0.02,0.08,0.02c0,0,0,0,0,0c0,0,0,0,0.01,0l5.62,0.97C30.25,53.98,30.37,54,30.5,54
	c0.08,0,0.16-0.01,0.24-0.03c0.01,0,0.02,0,0.03-0.01l17.94-3.99c0.46-0.1,0.78-0.51,0.78-0.98V31.16L52.55,31
	c0.39-0.02,0.73-0.26,0.87-0.62c0.15-0.36,0.07-0.77-0.2-1.06l-7.38-7.9c1.29-0.35,2.63-1.15,3.99-2.41
	c0.35-0.33,0.42-0.86,0.17-1.27c-1.51-2.39-3.24-3.76-5.14-4.06c-0.76-0.12-1.53-0.06-2.32,0.15c0.26-0.78,0.35-1.55,0.27-2.31
	c-0.21-1.91-1.48-3.7-3.79-5.34c-0.39-0.28-0.93-0.24-1.28,0.1c-3.19,3.11-3.31,5.74-2.47,7.71l-18.81-0.02c0,0,0,0,0,0
	c-0.02,0-0.04,0.01-0.06,0.01c-0.02,0-0.03-0.01-0.05-0.01c-0.04,0-0.08,0.03-0.12,0.04c-0.08,0.02-0.16,0.04-0.23,0.08
	c-0.05,0.03-0.09,0.06-0.14,0.09c-0.07,0.05-0.12,0.1-0.18,0.16c-0.02,0.02-0.04,0.03-0.06,0.06L6.68,27.49
	c-0.11,0.17-0.18,0.36-0.18,0.57v20.95C6.5,49.49,6.85,49.91,7.33,49.99z M14.5,49.2V39h9l0,11.76L14.5,49.2z M47.5,48.2l-16,3.56
	V30.49l1.31,1.24C33,31.9,33.25,32,33.5,32c0.02,0,0.04,0,0.05,0l13.95-0.73V48.2z M48.67,29.2c-0.06-0.01-0.11-0.03-0.17-0.03
	c-0.1,0-0.19,0.03-0.29,0.06l-14.34,0.75l-2.69-2.53c0,0,0,0,0,0L19,15.98L38.06,16l1.01,1.08c0,0,0,0,0,0c0,0,0,0,0,0l11.22,12.02
	L48.67,29.2z M44.56,15.65c1.13,0.18,2.23,1,3.29,2.44c-1.34,1.08-2.57,1.59-3.67,1.52l-2.82-3.03
	C42.51,15.82,43.59,15.5,44.56,15.65z M38.56,8.33c1.39,1.12,2.15,2.27,2.27,3.4c0.11,0.97-0.26,2.03-1.08,3.15l-0.53-0.57
	C39.04,14.11,38.78,14,38.5,14l-0.93,0C36.72,12.78,36.19,10.97,38.56,8.33z M8.5,28.37l8.14-11.86l12.05,11.34l0.81,0.76v23.19
	l-4-0.69l0-13.11c0-0.55-0.45-1-1-1h-11c-0.55,0-1,0.45-1,1v10.86l-4-0.69V28.37z"/>
<path d="M33.5,43c0,0.55,0.45,1,1,1h10c0.55,0,1-0.45,1-1v-6c0-0.55-0.45-1-1-1h-10c-0.55,0-1,0.45-1,1V43z M35.5,38h8v4h-8V38z"/>
</svg>
