<?xml version="1.0" encoding="utf-8"?>
<!-- Generator: Adobe Illustrator 24.0.2, SVG Export Plug-In . SVG Version: 6.00 Build 0)  -->
<svg version="1.1" id="Layer_3" xmlns="http://www.w3.org/2000/svg" xmlns:xlink="http://www.w3.org/1999/xlink" x="0px" y="0px"
	 viewBox="0 0 60 60" style="enable-background:new 0 0 60 60;" xml:space="preserve">
<path d="M21.45,22.69c1.14,0.64,2.46,0.96,3.94,0.96c1.11,0,2.31-0.18,3.61-0.54v8.61l-3.38,1.87c-1,0.56-1.63,1.57-1.68,2.72
	c-0.05,1.19,0.53,2.32,1.56,3.01c0.14,0.09,0.29,0.18,0.44,0.26c0.16,0.08,0.31,0.15,0.47,0.21c0.41,0.15,0.83,0.22,1.25,0.22
	c0.46,0,0.92-0.1,1.34-0.28v2.34C23.4,42.56,19,47.27,19,53c0,0.55,0.45,1,1,1h20c0.55,0,1-0.45,1-1c0-5.73-4.4-10.44-10-10.95
	V31.72C31.42,31.9,31.87,32,32.34,32c0.42,0,0.84-0.07,1.25-0.22c0.16-0.06,0.32-0.13,0.47-0.21c0.15-0.08,0.3-0.16,0.44-0.26
	c1.03-0.69,1.61-1.81,1.56-3.01c-0.05-1.14-0.68-2.16-1.68-2.72L31,23.72v-7.61c1.29,0.36,2.49,0.54,3.61,0.54
	c1.48,0,2.8-0.32,3.94-0.96c2.29-1.28,3.85-3.83,4.65-7.57c0.1-0.49-0.17-0.98-0.64-1.15c-3.61-1.28-6.6-1.28-8.88,0
	C32.62,7.55,31.74,8.41,31,9.51V7c0-0.55-0.45-1-1-1s-1,0.45-1,1v9.51c-0.74-1.11-1.62-1.97-2.67-2.55c-2.29-1.28-5.28-1.28-8.88,0
	c-0.47,0.17-0.75,0.66-0.64,1.15C17.6,18.86,19.16,21.41,21.45,22.69z M28.52,37.71c-0.39,0.31-0.91,0.38-1.42,0.19
	c-0.08-0.03-0.17-0.07-0.25-0.11c-0.08-0.04-0.16-0.09-0.24-0.14c-0.45-0.3-0.7-0.76-0.68-1.26c0.02-0.45,0.26-0.83,0.65-1.05
	l2.1-1.17l0.29,2.39C29.04,37.01,28.88,37.43,28.52,37.71z M31.3,26.17l2.1,1.17c0.39,0.22,0.63,0.6,0.65,1.05
	c0.02,0.5-0.23,0.96-0.68,1.26c-0.08,0.05-0.16,0.1-0.24,0.14c-0.08,0.04-0.16,0.08-0.25,0.11c-0.51,0.19-1.03,0.12-1.42-0.19
	c-0.35-0.28-0.52-0.7-0.47-1.15L31.3,26.17z M38.94,52H21.06c0.5-4.49,4.32-8,8.94-8S38.44,47.51,38.94,52z M34.64,8.71
	c1.6-0.89,3.74-0.94,6.39-0.14c-0.7,2.67-1.86,4.48-3.46,5.37c-1.27,0.71-2.89,0.88-4.83,0.51l3.72-1.92
	c0.49-0.25,0.68-0.86,0.43-1.35s-0.86-0.68-1.35-0.43l-3.96,2.04C32.3,10.83,33.32,9.45,34.64,8.71z M25.36,15.71
	c1.33,0.74,2.35,2.12,3.06,4.09l-3.96-2.04c-0.49-0.25-1.09-0.06-1.35,0.43c-0.25,0.49-0.06,1.09,0.43,1.35l3.72,1.92
	c-1.94,0.36-3.56,0.2-4.83-0.51c-1.6-0.89-2.76-2.7-3.46-5.37C21.61,14.77,23.76,14.82,25.36,15.71z"/>
</svg>
