<?xml version="1.0" encoding="utf-8"?>
<!-- Generator: Adobe Illustrator 24.0.2, SVG Export Plug-In . SVG Version: 6.00 Build 0)  -->
<svg version="1.1" id="Layer_3" xmlns="http://www.w3.org/2000/svg" xmlns:xlink="http://www.w3.org/1999/xlink" x="0px" y="0px"
	 viewBox="0 0 60 60" style="enable-background:new 0 0 60 60;" xml:space="preserve">
<path d="M51.89,48.55c-0.08-0.16-0.21-0.3-0.36-0.4l-8-5c-0.12-0.07-0.25-0.12-0.39-0.14l-13.48-1.93L24.62,31H53c0.55,0,1-0.45,1-1
	s-0.45-1-1-1H24c-0.19,0-0.35,0.06-0.5,0.15c-0.04-0.02-0.07-0.05-0.11-0.07l-7-3c-0.16-0.07-0.33-0.09-0.5-0.07l-9,1
	c-0.55,0.06-0.94,0.56-0.88,1.1c0.06,0.55,0.56,0.95,1.1,0.88l8.74-0.97l6.42,2.75l5.84,11.67c0.15,0.29,0.43,0.5,0.75,0.54
	l13.79,1.97l7.58,4.74l1.87,3.75C52.28,53.8,52.63,54,53,54c0.15,0,0.3-0.03,0.45-0.11c0.49-0.25,0.69-0.85,0.45-1.34L51.89,48.55z"
	/>
<path d="M51,32.5c-1.11,0-1.73,0.37-2.18,0.64c-0.37,0.22-0.6,0.36-1.16,0.36s-0.78-0.13-1.16-0.36c-0.45-0.27-1.07-0.64-2.18-0.64
	c-1.11,0-1.73,0.37-2.18,0.64c-0.37,0.22-0.6,0.36-1.15,0.36s-0.78-0.13-1.15-0.36c-0.45-0.27-1.07-0.64-2.18-0.64
	s-1.73,0.37-2.18,0.64c-0.37,0.22-0.59,0.36-1.15,0.36c-0.55,0-0.78-0.13-1.15-0.36c-0.45-0.27-1.07-0.64-2.18-0.64
	c-0.55,0-1,0.45-1,1s0.45,1,1,1c0.55,0,0.78,0.13,1.15,0.36c0.45,0.27,1.07,0.64,2.18,0.64s1.73-0.37,2.18-0.64
	c0.37-0.22,0.6-0.36,1.15-0.36s0.78,0.13,1.15,0.36c0.45,0.27,1.07,0.64,2.18,0.64s1.73-0.37,2.18-0.64
	c0.37-0.22,0.6-0.36,1.15-0.36c0.56,0,0.78,0.13,1.16,0.36c0.45,0.27,1.07,0.64,2.18,0.64s1.73-0.37,2.18-0.64
	c0.37-0.22,0.6-0.36,1.16-0.36c0.55,0,1-0.45,1-1S51.55,32.5,51,32.5z"/>
<path d="M51,36.9c-1.11,0-1.73,0.37-2.18,0.64c-0.37,0.22-0.6,0.36-1.16,0.36s-0.78-0.13-1.16-0.36c-0.45-0.27-1.07-0.64-2.18-0.64
	c-1.11,0-1.73,0.37-2.18,0.64c-0.37,0.22-0.6,0.36-1.15,0.36s-0.78-0.13-1.15-0.36c-0.45-0.27-1.07-0.64-2.18-0.64
	s-1.73,0.37-2.18,0.64c-0.37,0.22-0.59,0.36-1.15,0.36c-0.55,0-0.78-0.13-1.15-0.36c-0.45-0.27-1.07-0.64-2.18-0.64
	c-0.55,0-1,0.45-1,1s0.45,1,1,1c0.55,0,0.78,0.13,1.15,0.36c0.45,0.27,1.07,0.64,2.18,0.64s1.73-0.37,2.18-0.64
	c0.37-0.22,0.6-0.36,1.15-0.36s0.78,0.13,1.15,0.36c0.45,0.27,1.07,0.64,2.18,0.64s1.73-0.37,2.18-0.64
	c0.37-0.22,0.6-0.36,1.15-0.36c0.56,0,0.78,0.13,1.16,0.36c0.45,0.27,1.07,0.64,2.18,0.64s1.73-0.37,2.18-0.64
	c0.37-0.22,0.6-0.36,1.16-0.36c0.55,0,1-0.45,1-1S51.55,36.9,51,36.9z"/>
<path d="M17,20c2.76,0,5-2.24,5-5s-2.24-5-5-5s-5,2.24-5,5S14.24,20,17,20z M17,12c1.65,0,3,1.35,3,3s-1.35,3-3,3s-3-1.35-3-3
	S15.35,12,17,12z"/>
<path d="M17,9c0.55,0,1-0.45,1-1V7c0-0.55-0.45-1-1-1s-1,0.45-1,1v1C16,8.55,16.45,9,17,9z"/>
<path d="M9.57,11.87l0.87,0.5c0.16,0.09,0.33,0.13,0.5,0.13c0.35,0,0.68-0.18,0.87-0.5c0.28-0.48,0.11-1.09-0.37-1.37l-0.87-0.5
	c-0.48-0.28-1.09-0.11-1.37,0.37C8.93,10.98,9.09,11.59,9.57,11.87z"/>
<path d="M10.07,20c0.17,0,0.34-0.04,0.5-0.13l0.87-0.5c0.48-0.28,0.64-0.89,0.37-1.37c-0.28-0.48-0.89-0.64-1.37-0.37l-0.87,0.5
	c-0.48,0.28-0.64,0.89-0.37,1.37C9.39,19.82,9.73,20,10.07,20z"/>
<path d="M16,22v1c0,0.55,0.45,1,1,1s1-0.45,1-1v-1c0-0.55-0.45-1-1-1S16,21.45,16,22z"/>
<path d="M24.43,18.13l-0.87-0.5c-0.48-0.28-1.09-0.11-1.37,0.37c-0.28,0.48-0.11,1.09,0.37,1.37l0.87,0.5
	c0.16,0.09,0.33,0.13,0.5,0.13c0.35,0,0.68-0.18,0.87-0.5C25.07,19.02,24.91,18.41,24.43,18.13z"/>
<path d="M24.79,10.5c-0.28-0.48-0.89-0.64-1.37-0.37l-0.87,0.5c-0.48,0.28-0.64,0.89-0.37,1.37c0.19,0.32,0.52,0.5,0.87,0.5
	c0.17,0,0.34-0.04,0.5-0.13l0.87-0.5C24.91,11.59,25.07,10.98,24.79,10.5z"/>
<path d="M42.87,20.99c2.77,0.35,3.1,2.71,3.13,2.98c0,0.04,0.02,0.07,0.03,0.11c0.01,0.06,0.03,0.11,0.05,0.17
	c0.03,0.07,0.06,0.12,0.1,0.18c0.03,0.04,0.06,0.08,0.09,0.12c0.05,0.06,0.11,0.1,0.18,0.14c0.04,0.03,0.07,0.05,0.12,0.07
	c0.08,0.04,0.16,0.06,0.25,0.08c0.03,0.01,0.05,0.02,0.08,0.03c0.02,0,0.05,0,0.07,0c0.01,0,0.02,0.01,0.03,0.01
	c0.03,0,0.06,0,0.09,0c0.05,0,0.1-0.03,0.15-0.04c0.06-0.01,0.11-0.03,0.16-0.05c0.07-0.03,0.12-0.07,0.18-0.11
	c0.04-0.03,0.08-0.06,0.12-0.1c0.05-0.05,0.09-0.1,0.12-0.16c0.03-0.05,0.06-0.1,0.08-0.15c0.02-0.06,0.04-0.12,0.05-0.18
	c0.01-0.04,0.03-0.07,0.03-0.1c0.03-0.27,0.36-2.63,3.13-2.98c0.55-0.07,0.94-0.57,0.87-1.12c-0.07-0.55-0.56-0.94-1.12-0.87
	c-1.91,0.24-3.13,1.18-3.88,2.23c-0.75-1.05-1.97-1.99-3.88-2.23c-0.56-0.07-1.05,0.32-1.12,0.87
	C41.94,20.42,42.33,20.92,42.87,20.99z"/>
<path d="M36,10.3c-0.75-1.05-1.97-1.99-3.88-2.23C31.56,8,31.08,8.39,31.01,8.94c-0.07,0.55,0.32,1.05,0.87,1.12
	c2.77,0.35,3.1,2.71,3.13,2.98c0,0.04,0.02,0.07,0.03,0.11c0.01,0.06,0.03,0.11,0.05,0.17c0.03,0.07,0.06,0.12,0.1,0.18
	c0.03,0.04,0.06,0.08,0.09,0.12c0.05,0.06,0.11,0.1,0.18,0.14c0.04,0.03,0.07,0.05,0.12,0.07c0.08,0.04,0.16,0.06,0.25,0.08
	c0.03,0.01,0.05,0.02,0.08,0.03c0.02,0,0.05,0,0.07,0c0.01,0,0.02,0.01,0.03,0.01c0.03,0,0.06,0,0.09,0c0.05,0,0.1-0.03,0.15-0.04
	c0.06-0.01,0.11-0.03,0.16-0.05c0.07-0.03,0.12-0.07,0.18-0.11c0.04-0.03,0.08-0.06,0.12-0.1c0.05-0.05,0.09-0.1,0.12-0.16
	c0.03-0.05,0.06-0.1,0.08-0.15c0.02-0.06,0.04-0.12,0.05-0.18c0.01-0.04,0.03-0.07,0.03-0.1c0.03-0.27,0.36-2.63,3.13-2.98
	c0.55-0.07,0.94-0.57,0.87-1.12C40.92,8.39,40.43,8,39.87,8.07C37.97,8.31,36.75,9.25,36,10.3z"/>
</svg>
