<?xml version="1.0" encoding="utf-8"?>
<!-- Generator: Adobe Illustrator 24.0.2, SVG Export Plug-In . SVG Version: 6.00 Build 0)  -->
<svg version="1.1" id="Layer_3" xmlns="http://www.w3.org/2000/svg" xmlns:xlink="http://www.w3.org/1999/xlink" x="0px" y="0px"
	 viewBox="0 0 60 60" style="enable-background:new 0 0 60 60;" xml:space="preserve">
<path d="M51.32,22.56c-1.43-0.68-3.19-1.05-5.04-1.06c-2.99-0.16-7.43,1.75-12.11,3.76c-2.43,1.05-4.93,2.12-7.17,2.87v-2.64v-2.62
	c0.72-0.16,1.27-0.35,1.58-0.57c0.26-0.19,0.42-0.49,0.42-0.81v-3.08c0-2.19,1.26-4.18,3.2-5.07c2.42-1.11,6.08-2.1,10.06-2.72
	c1.01-0.16,1.74-1.01,1.74-2.03c0-0.56-0.23-1.09-0.63-1.48c-0.4-0.39-0.95-0.6-1.5-0.57c-7.24,0.28-14.19,0.63-19.6,1.85
	c-5.16,1.26-8.78,2.84-11.35,4.95c-2.66,1.88-4.07,3.87-4.88,6.9c-0.05,0.19-0.04,0.4,0.02,0.58c0.32,0.92,1.39,1.36,2.17,1.61
	c0.15,0.05,0.33,0.09,0.5,0.14l-0.64,1.52C8.03,24.19,8,24.31,7.99,24.44L7.03,49.37c-0.04,1.16,0.58,2.23,1.59,2.74
	c2.05,1.03,5.16,1.38,8.15,1.38c2.77,0,5.44-0.3,7.05-0.65c1.23-0.26,2.16-1.28,2.31-2.52l0.81-6.52
	c1.99-3.09,9.75-8.47,14.39-10.07l0.4,1.19c0.33,0.97,1.3,1.58,2.31,1.43l5.33-0.76c0.86-0.12,1.55-0.75,1.76-1.59l0.74-2.95
	c0.41-0.36,0.8-0.78,1.14-1.22c0.88-1.15,1.19-2.63,0.85-4.06C53.53,24.33,52.6,23.17,51.32,22.56z M8.1,20.24
	c0.7-2.28,1.85-3.8,4.02-5.33c2.38-1.95,5.75-3.41,10.59-4.59c5.23-1.17,12.07-1.52,19.22-1.8c0,0,0.01,0.1,0.01,0.1
	C39.51,9,34.89,9.89,31.36,11.5c-2.65,1.22-4.37,3.92-4.37,6.89v2.45c-0.25,0.08-0.59,0.15-0.98,0.22c-0.01,0-0.01,0-0.02,0
	c-0.05,0-0.09,0.02-0.14,0.03c-3.43,0.52-11.21,0.52-15.35-0.15c-0.01,0-0.01-0.01-0.02-0.01c-0.14-0.06-0.29-0.08-0.44-0.07
	C9.15,20.69,8.47,20.48,8.1,20.24z M18.91,23.49c2.21,0,4.35-0.1,6.08-0.31v1.86c-0.87,0.48-4.06,0.46-6.05,0.44
	c-0.52,0-1.06-0.02-1.56-0.01c-2.9-0.03-5.84-0.69-7.16-1.36l0.49-1.16C13.03,23.31,16.01,23.49,18.91,23.49z M49.21,33.5
	c-0.01,0.05-0.05,0.09-0.1,0.09l-5.33,0.76c-0.06,0.01-0.12-0.03-0.13-0.08l-0.59-1.78c0.4-1.06,1.09-1.99,2.96-2.01
	c1.33-0.03,2.65,0.2,3.8,0.61L49.21,33.5z M51.44,28.59c-0.2,0.26-0.43,0.51-0.66,0.73c-1.45-0.56-3.12-0.87-4.8-0.85
	c-3.2,0.04-4.32,2.05-4.76,3.19c-5.19,1.58-13.96,7.68-16.09,11.27c-0.07,0.12-0.12,0.25-0.13,0.39l-0.84,6.74
	c-0.05,0.4-0.35,0.73-0.75,0.81c-3.73,0.8-10.82,0.97-13.89-0.56c-0.31-0.16-0.5-0.5-0.49-0.87l0.9-23.27
	c1.99,0.82,5,1.28,7.45,1.31c0.52,0,1.04,0,1.56,0.01c2.53,0.02,4.61,0.03,6.06-0.34v2.33c0,0.31,0.15,0.61,0.4,0.8
	s0.57,0.25,0.88,0.16c2.67-0.76,5.73-2.07,8.69-3.35c4.27-1.84,8.67-3.72,11.26-3.6c1.58,0.01,3.09,0.32,4.24,0.87
	c0.73,0.35,1.27,1.02,1.47,1.85C52.13,27.05,51.95,27.92,51.44,28.59z"/>
<path d="M47.85,37.96c-0.18-0.3-0.51-0.49-0.86-0.49s-0.68,0.18-0.86,0.49l-2.26,3.76c-0.67,1.12-0.73,2.5-0.16,3.69
	c0.54,1.12,1.54,1.86,2.74,2.02c0.18,0.02,0.36,0.04,0.54,0.04c0.18,0,0.36-0.01,0.54-0.04c1.2-0.16,2.2-0.9,2.74-2.02
	c0.57-1.19,0.51-2.57-0.16-3.69L47.85,37.96z M48.47,44.55c-0.14,0.3-0.49,0.81-1.2,0.91c-0.18,0.02-0.37,0.02-0.54,0
	c-0.72-0.1-1.06-0.61-1.2-0.91c-0.27-0.57-0.25-1.26,0.08-1.8l1.4-2.33l1.4,2.33C48.72,43.29,48.74,43.98,48.47,44.55z"/>
</svg>
