<svg width="24" height="24" viewBox="0 0 24 24" fill="none" xmlns="http://www.w3.org/2000/svg">
<path opacity="0.99" d="M10.3128 16.0937C10.1815 16.0939 10.0514 16.068 9.93008 16.0178C9.80875 15.9675 9.69855 15.8937 9.60582 15.8007L6.79332 12.9882C6.60775 12.8003 6.50406 12.5466 6.50489 12.2825C6.50571 12.0184 6.61099 11.7654 6.79773 11.5786C6.98447 11.3919 7.23751 11.2866 7.50161 11.2858C7.7657 11.2849 8.0194 11.3886 8.20732 11.5742L10.3128 13.6796L15.7933 8.19918C15.9812 8.01361 16.2349 7.90994 16.499 7.91077C16.7631 7.91161 17.0162 8.01689 17.2029 8.20364C17.3897 8.39039 17.4949 8.64344 17.4958 8.90753C17.4966 9.17163 17.3929 9.42533 17.2073 9.61324L11.0198 15.8007C10.9271 15.8937 10.8169 15.9675 10.6956 16.0178C10.5742 16.0681 10.4442 16.0939 10.3128 16.0937Z" fill="#00565B"/>
<path d="M12 2C10.0222 2 8.08879 2.58649 6.4443 3.6853C4.79981 4.78412 3.51809 6.3459 2.76121 8.17317C2.00433 10.0004 1.8063 12.0111 2.19215 13.9509C2.578 15.8907 3.53041 17.6725 4.92894 19.0711C6.32746 20.4696 8.10929 21.422 10.0491 21.8079C11.9889 22.1937 13.9996 21.9957 15.8268 21.2388C17.6541 20.4819 19.2159 19.2002 20.3147 17.5557C21.4135 15.9112 22 13.9778 22 12C21.997 9.34877 20.9424 6.80699 19.0677 4.93228C17.193 3.05758 14.6512 2.00303 12 2ZM17.207 9.61328L11.0195 15.8008C10.9267 15.8937 10.8165 15.9673 10.6951 16.0176C10.5738 16.0679 10.4438 16.0938 10.3125 16.0938C10.1812 16.0938 10.0511 16.0679 9.92981 16.0176C9.8085 15.9673 9.69828 15.8937 9.60544 15.8008L6.793 12.9883C6.60743 12.8004 6.50374 12.5467 6.50457 12.2826C6.50539 12.0185 6.61067 11.7654 6.79741 11.5787C6.98415 11.3919 7.23719 11.2867 7.50129 11.2858C7.76538 11.285 8.01908 11.3887 8.207 11.5742L10.3125 13.6797L15.793 8.19922C15.9809 8.01366 16.2346 7.90998 16.4987 7.91081C16.7628 7.91165 17.0159 8.01694 17.2026 8.20368C17.3893 8.39043 17.4946 8.64348 17.4954 8.90757C17.4963 9.17167 17.3926 9.42537 17.207 9.61328Z" fill="#9AD7DA"/>
</svg>
