<?xml version="1.0" encoding="UTF-8"?>
<svg width="24px" height="24px" viewBox="0 0 24 24" version="1.1" xmlns="http://www.w3.org/2000/svg" xmlns:xlink="http://www.w3.org/1999/xlink">
    <!-- Generator: sketchtool 52 (66869) - http://www.bohemiancoding.com/sketch -->
    <title>9088343C-A71D-4F48-8DE1-E9EAC9394F74</title>
    <desc>Created with sketchtool.</desc>
    <g id="Landing-Page" stroke="none" stroke-width="1" fill="none" fill-rule="evenodd">
        <g id="Myscout-Landing-page" transform="translate(-448.000000, -3308.000000)">
            <g id="Group-32" transform="translate(448.000000, 3308.000000)">
                <g id="Group-27">
                    <g id="Tick">
                        <rect id="Rectangle" fill-opacity="0.01" fill="#FFFFFF" x="0" y="0" width="24" height="24"></rect>
                        <g id="Group-31" transform="translate(2.000000, 2.000000)" fill-rule="nonzero">
                            <path d="M10,20 C4.4771525,20 0,15.5228475 0,10 C0,4.4771525 4.4771525,0 10,0 C15.5228475,0 20,4.4771525 20,10 C20,15.5228475 15.5228475,20 10,20 Z" id="Path-4" fill="#8CE8AB"></path>
                            <path d="M13.2928932,6.29289322 C13.6834175,5.90236893 14.3165825,5.90236893 14.7071068,6.29289322 C15.0976311,6.68341751 15.0976311,7.31658249 14.7071068,7.70710678 L8,14.4142136 L5.29289322,11.7071068 C4.90236893,11.3165825 4.90236893,10.6834175 5.29289322,10.2928932 C5.68341751,9.90236893 6.31658249,9.90236893 6.70710678,10.2928932 L8,11.5857864 L13.2928932,6.29289322 Z" id="Path-2" fill="#12933D"></path>
                        </g>
                    </g>
                </g>
            </g>
        </g>
    </g>
</svg>