<?xml version="1.0" encoding="utf-8"?>
<!-- Generator: Adobe Illustrator 24.0.2, SVG Export Plug-In . SVG Version: 6.00 Build 0)  -->
<svg version="1.1" id="Layer_3" xmlns="http://www.w3.org/2000/svg" xmlns:xlink="http://www.w3.org/1999/xlink" x="0px" y="0px"
	 viewBox="0 0 60 60" style="enable-background:new 0 0 60 60;" xml:space="preserve">
<path d="M9.54,31.83c1.06,0.55,2.51,0.86,4.3,0.93l-1.28,1.59c-0.35,0.43-0.28,1.06,0.15,1.41c0.19,0.15,0.41,0.22,0.63,0.22
	c0.29,0,0.58-0.13,0.78-0.37l2.32-2.89c0.98-0.07,2.04-0.18,3.18-0.35c0.13-0.02,0.22-0.03,0.19-0.04c2.22,0,5,2.61,6.38,4.18
	c-1.31,1.55-2.52,3.43-3.21,6.16c-1.26,3.28-1.98,6.74-2.15,10.27c-0.01,0.27,0.09,0.54,0.28,0.74c0.19,0.2,0.45,0.31,0.72,0.31
	h10.44c0.31,0,0.6-0.14,0.79-0.39c0.19-0.25,0.25-0.57,0.17-0.87c-1.38-5.16-1.45-8.77-0.23-11.67c4.21-3.32,3.81-6.44,3.32-10.37
	c-0.03-0.22-0.05-0.46-0.08-0.69c0.96-0.21,2.48-0.57,4.18-1.1c1.49,0.28,2.8,0.6,3.96,0.98l-0.42,1.36
	c-0.16,0.53,0.13,1.09,0.66,1.25c0.1,0.03,0.2,0.05,0.3,0.05c0.43,0,0.82-0.27,0.95-0.7l0.38-1.23c0.45,0.2,0.88,0.42,1.27,0.64
	c0.16,0.09,0.33,0.14,0.5,0.14c0.34,0,0.68-0.18,0.86-0.5c0.28-0.48,0.12-1.09-0.36-1.37c-1.29-0.76-2.81-1.37-4.65-1.88
	c3.94-1.68,7.61-4.25,7.06-7.91c-0.08-0.55-0.59-0.93-1.14-0.84c-0.55,0.08-0.92,0.59-0.84,1.14c0.22,1.44-0.79,2.73-2.37,3.85
	c-0.17-1.14-0.56-2.61-1.41-3.67c-0.35-0.43-0.98-0.5-1.41-0.15s-0.5,0.98-0.15,1.41c0.73,0.91,1,2.54,1.08,3.54
	c-1.77,0.91-3.83,1.65-5.69,2.21v-2.15c0-0.55-0.45-1-1-1s-1,0.45-1,1v2.7c-0.79,0.2-1.5,0.35-2.05,0.46
	c-0.02,0-0.04,0.02-0.06,0.02c-0.02,0-0.04,0-0.06,0c-1.08,0.34-1.99,0.75-2.76,1.23l-1.93-2.12c0.73-1.39,2.84-4.92,5.97-6.59
	c0.49-0.26,0.67-0.87,0.41-1.35c-0.26-0.49-0.87-0.67-1.35-0.41c-0.91,0.48-1.73,1.09-2.47,1.75c-0.31-1.9-1.04-4.39-2.78-5.19
	c-0.5-0.23-1.1-0.01-1.33,0.49c-0.23,0.5-0.01,1.1,0.49,1.33c1.06,0.49,1.69,3.28,1.82,5.24c-1.23,1.48-2.08,2.94-2.52,3.78
	l-3.04-0.58c-0.54-0.11-1.07,0.25-1.17,0.8c-0.1,0.54,0.25,1.07,0.8,1.17l3.45,0.66l2.09,2.31c-0.62,0.7-1,1.48-1.14,2.37
	c-0.41,0.45-0.84,0.89-1.28,1.33c-0.19,0.19-0.38,0.39-0.57,0.58c-0.79-0.88-2.11-2.21-3.66-3.24c-0.18-0.95-0.66-3.06-1.62-4.88
	l1.47-1.72c0.36-0.42,0.31-1.05-0.11-1.41c-0.42-0.36-1.05-0.31-1.41,0.11l-1.12,1.31c-0.46-0.51-0.98-0.92-1.58-1.18
	c-0.19-0.08-0.4-0.1-0.59-0.06c-0.07,0.01-0.95,0.18-2.17-0.01c0.68-1.29,1.61-3.37,1.43-4.84c-0.07-0.55-0.57-0.94-1.11-0.87
	c-0.55,0.07-0.94,0.57-0.87,1.11c0.11,0.87-0.67,2.67-1.4,4c-0.75-0.35-1.54-0.85-2.28-1.61c-0.39-0.39-1.02-0.4-1.41-0.01
	c-0.39,0.39-0.4,1.02-0.01,1.41c3.07,3.1,6.7,2.96,7.86,2.82c1.24,0.74,2.11,2.91,2.6,4.66c-0.58-0.19-1.16-0.3-1.74-0.3
	c-0.04,0-0.21,0.02-0.49,0.06c-5.27,0.79-7.73,0.25-8.86-0.34c-0.49-0.26-1.09-0.06-1.35,0.43C8.86,30.97,9.05,31.57,9.54,31.83z
	 M29.54,35.84c0.54-0.54,1.06-1.08,1.56-1.65c0.14-0.16,0.23-0.37,0.25-0.58c0.1-1.24,1.09-2.26,2.95-3.05
	c0.02,0.12,0.03,0.24,0.05,0.36c0.49,3.87,0.75,6.01-2.76,8.69c-0.13,0.1-0.24,0.23-0.3,0.38c-1.41,3.13-1.51,6.86-0.29,11.97H22.9
	c0.24-2.97,0.9-5.88,1.97-8.65c0.02-0.04,0.03-0.08,0.04-0.12C25.79,39.65,27.7,37.72,29.54,35.84z"/>
<path d="M14.02,10.99c0,2.74,2.23,4.98,4.98,4.98s4.98-2.23,4.98-4.98S21.74,6.01,19,6.01S14.02,8.24,14.02,10.99z M21.97,10.99
	c0,1.64-1.33,2.98-2.98,2.98s-2.98-1.33-2.98-2.98S17.36,8.01,19,8.01S21.97,9.35,21.97,10.99z"/>
</svg>
