<?xml version="1.0" encoding="utf-8"?>
<!-- Generator: Adobe Illustrator 24.0.2, SVG Export Plug-In . SVG Version: 6.00 Build 0)  -->
<svg version="1.1" id="Layer_3" xmlns="http://www.w3.org/2000/svg" xmlns:xlink="http://www.w3.org/1999/xlink" x="0px" y="0px"
	 viewBox="0 0 60 60" style="enable-background:new 0 0 60 60;" xml:space="preserve">
<path d="M13.5,23.2c0.17,0,0.34-0.04,0.5-0.13l5.65-3.27c0.5,0.51,1.14,0.87,1.85,1.06v8.6c-0.52-0.5-1.1-0.86-1.73-1.06
	c-1.57-0.51-3.4-0.08-5.43,1.27c-0.39,0.26-0.55,0.75-0.38,1.19c0.87,2.28,2.1,3.7,3.67,4.21c0.43,0.14,0.87,0.21,1.34,0.21
	c0.79,0,1.65-0.22,2.55-0.63v14.4c-2.54,0.22-5.08,1.27-7.6,3.16c-0.44,0.33-0.53,0.96-0.2,1.4c0.33,0.44,0.96,0.53,1.4,0.2
	c2.49-1.87,4.94-2.8,7.4-2.8c0,0,0,0,0,0s0,0,0,0c2.45,0,4.91,0.93,7.4,2.8c0.18,0.14,0.39,0.2,0.6,0.2c0.3,0,0.6-0.14,0.8-0.4
	c0.33-0.44,0.24-1.07-0.2-1.4c-2.52-1.89-5.06-2.94-7.6-3.16v-6.4c0.9,0.4,1.75,0.63,2.55,0.63c0.46,0,0.91-0.07,1.34-0.21
	c1.57-0.51,2.8-1.92,3.67-4.21c0.17-0.44,0.01-0.93-0.38-1.19c-2.04-1.35-3.87-1.77-5.43-1.27c-0.63,0.2-1.21,0.56-1.73,1.06v-16.6
	c0.71-0.18,1.35-0.55,1.85-1.06L31,23.07c0.16,0.09,0.33,0.13,0.5,0.13c0.35,0,0.68-0.18,0.87-0.5c0.28-0.48,0.11-1.09-0.37-1.37
	l-5.66-3.27c0.09-0.34,0.16-0.69,0.16-1.06c0-1.86-1.28-3.41-3-3.86V7c0-0.55-0.45-1-1-1s-1,0.45-1,1v6.14c-1.72,0.45-3,2-3,3.86
	c0,0.37,0.07,0.72,0.16,1.06L13,21.33c-0.48,0.28-0.64,0.89-0.37,1.37C12.82,23.02,13.16,23.2,13.5,23.2z M18.23,33.16
	c-0.81-0.26-1.51-1.02-2.09-2.25c1.2-0.66,2.21-0.86,3.01-0.6c0.81,0.26,1.51,1.02,2.09,2.25C20.05,33.21,19.04,33.42,18.23,33.16z
	 M25.84,38.3c0.81-0.26,1.82-0.06,3.01,0.6c-0.58,1.24-1.28,1.99-2.09,2.25c-0.81,0.26-1.82,0.06-3.01-0.6
	C24.34,39.32,25.04,38.56,25.84,38.3z M22.5,15c1.1,0,2,0.9,2,2s-0.9,2-2,2s-2-0.9-2-2S21.4,15,22.5,15z"/>
<path d="M34.5,17h1.1c0.13,0.64,0.38,1.23,0.73,1.75l-0.78,0.78c-0.39,0.39-0.39,1.02,0,1.41c0.2,0.2,0.45,0.29,0.71,0.29
	s0.51-0.1,0.71-0.29l0.78-0.78c0.52,0.35,1.12,0.6,1.75,0.73V22c0,0.55,0.45,1,1,1s1-0.45,1-1v-1.1c0.64-0.13,1.23-0.38,1.75-0.73
	l0.78,0.78c0.2,0.2,0.45,0.29,0.71,0.29s0.51-0.1,0.71-0.29c0.39-0.39,0.39-1.02,0-1.41l-0.78-0.78c0.35-0.52,0.6-1.12,0.73-1.75
	h1.1c0.55,0,1-0.45,1-1s-0.45-1-1-1h-1.1c-0.13-0.64-0.38-1.23-0.73-1.75l0.78-0.78c0.39-0.39,0.39-1.02,0-1.41s-1.02-0.39-1.41,0
	l-0.78,0.78c-0.52-0.35-1.12-0.6-1.75-0.73V10c0-0.55-0.45-1-1-1s-1,0.45-1,1v1.1c-0.64,0.13-1.23,0.38-1.75,0.73l-0.78-0.78
	c-0.39-0.39-1.02-0.39-1.41,0s-0.39,1.02,0,1.41l0.78,0.78c-0.35,0.52-0.6,1.12-0.73,1.75h-1.1c-0.55,0-1,0.45-1,1S33.95,17,34.5,17
	z M40.5,13c1.65,0,3,1.35,3,3s-1.35,3-3,3s-3-1.35-3-3S38.85,13,40.5,13z"/>
</svg>
