<?xml version="1.0" encoding="utf-8"?>
<!-- Generator: Adobe Illustrator 24.0.2, SVG Export Plug-In . SVG Version: 6.00 Build 0)  -->
<svg version="1.1" id="Layer_3" xmlns="http://www.w3.org/2000/svg" xmlns:xlink="http://www.w3.org/1999/xlink" x="0px" y="0px"
	 viewBox="0 0 60 60" style="enable-background:new 0 0 60 60;" xml:space="preserve">
<path d="M26.17,53.55C26.36,53.83,26.67,54,27,54c0.1,0,0.21-0.02,0.32-0.05c0.1-0.03,0.17-0.09,0.25-0.14
	C28.36,53.92,29.17,54,30,54c7.86,0,14.48-5.37,16.41-12.63c0.03-0.07,0.05-0.15,0.06-0.23C46.8,39.81,47,38.43,47,37
	c0-7.5-4.9-14.06-12-16.24V11c0-2.76-2.24-5-5-5s-5,2.24-5,5v9.76c-5.54,1.7-9.73,6.08-11.31,11.48c0,0,0,0,0,0.01
	c0,0.01,0,0.02-0.01,0.03C13.24,33.78,13,35.37,13,37C13,45.06,18.64,51.81,26.17,53.55z M15,37c0-1,0.11-1.98,0.3-2.93L19.56,36
	c0.88,0.4,1.44,1.27,1.44,2.23c0,1.28,0.55,2.5,1.52,3.35l1.2,1.05c0.7,0.61,0.99,1.58,0.75,2.48l-0.17,0.64
	c-0.23,0.85-0.2,1.73,0.08,2.56l0.99,2.96C19.36,49.3,15,43.65,15,37z M44.67,40.1l-4.11,0.55c-0.31,0.04-0.6-0.07-0.82-0.29
	c-0.21-0.23-0.3-0.53-0.24-0.83c0.17-0.87-0.05-1.76-0.61-2.45C38.34,36.39,37.51,36,36.63,36h-2.7c-0.19,0-0.38-0.06-0.54-0.17
	l-0.84-0.59c-0.42-0.29-0.42-0.72-0.4-0.88c0.02-0.17,0.12-0.58,0.59-0.77l0.72-0.29c0.88-0.35,1.54-1.11,1.76-2.02l0.53-2.1
	c0.07-0.28,0.27-0.52,0.54-0.64l4.5-1.96C43.41,29.3,45,33,45,37C45,38.06,44.89,39.1,44.67,40.1z M26.25,22.47
	c0.02-0.01,0.04-0.02,0.07-0.03c0.07-0.02,0.12-0.05,0.18-0.09c0.05-0.03,0.11-0.06,0.15-0.1c0.05-0.04,0.09-0.09,0.12-0.14
	c0.04-0.05,0.08-0.1,0.11-0.16c0.03-0.05,0.04-0.11,0.06-0.17c0.02-0.07,0.04-0.13,0.04-0.2c0-0.03,0.01-0.05,0.01-0.07V11
	c0-1.65,1.35-3,3-3s3,1.35,3,3v10.5c0,0.03,0.01,0.05,0.01,0.07c0.01,0.07,0.02,0.13,0.04,0.2c0.02,0.06,0.03,0.12,0.06,0.17
	c0.03,0.06,0.07,0.11,0.11,0.16c0.04,0.05,0.08,0.1,0.12,0.14c0.05,0.04,0.1,0.07,0.15,0.1c0.06,0.03,0.12,0.07,0.18,0.09
	c0.02,0.01,0.04,0.03,0.07,0.03c2.01,0.52,3.82,1.43,5.39,2.64l-3.66,1.6c-0.83,0.36-1.46,1.11-1.68,1.99l-0.53,2.11
	c-0.07,0.29-0.29,0.54-0.57,0.65l-0.72,0.29c-1.01,0.4-1.71,1.32-1.83,2.4s0.35,2.13,1.25,2.75l0.84,0.59
	c0.5,0.35,1.08,0.53,1.68,0.53h2.7c0.39,0,0.63,0.22,0.73,0.35c0.11,0.13,0.27,0.4,0.2,0.79c-0.19,0.93,0.09,1.9,0.74,2.59
	c0.56,0.6,1.34,0.93,2.15,0.93c0.13,0,0.26-0.01,0.39-0.03l3.22-0.43C41.93,47.91,36.44,52,30,52c-0.8,0-1.58-0.08-2.35-0.2
	l-1.38-4.13c-0.15-0.46-0.17-0.95-0.04-1.41l0.17-0.64c0.44-1.63-0.1-3.4-1.37-4.51l-1.2-1.05C23.31,39.6,23,38.93,23,38.23
	c0-1.74-1.03-3.34-2.62-4.05l-4.57-2.06C17.42,27.45,21.27,23.75,26.25,22.47z"/>
<path d="M37,12h2c0.55,0,1-0.45,1-1s-0.45-1-1-1h-2c-0.55,0-1,0.45-1,1S36.45,12,37,12z"/>
<path d="M37,20h2c0.55,0,1-0.45,1-1s-0.45-1-1-1h-2c-0.55,0-1,0.45-1,1S36.45,20,37,20z"/>
<path d="M37,16h1c0.55,0,1-0.45,1-1s-0.45-1-1-1h-1c-0.55,0-1,0.45-1,1S36.45,16,37,16z"/>
</svg>
