<?xml version="1.0" encoding="utf-8"?>
<!-- Generator: Adobe Illustrator 24.0.2, SVG Export Plug-In . SVG Version: 6.00 Build 0)  -->
<svg version="1.1" id="Layer_3" xmlns="http://www.w3.org/2000/svg" xmlns:xlink="http://www.w3.org/1999/xlink" x="0px" y="0px"
	 viewBox="0 0 60 60" style="enable-background:new 0 0 60 60;" xml:space="preserve">
<path d="M6.18,49.57c0.22,0.31,0.61,0.48,0.98,0.41L12,49.18V53c0,0.55,0.45,1,1,1h4c0.55,0,1-0.45,1-1v-4.13l6.14-0.88
	c0.36-0.05,0.66-0.29,0.79-0.63s0.07-0.72-0.17-1l-3.98-4.78l2.45-0.61c0.32-0.08,0.58-0.31,0.7-0.62s0.07-0.66-0.13-0.93
	l-3.42-4.79l1.37,0.34c0.37,0.09,0.77-0.04,1.01-0.33c0.25-0.3,0.3-0.71,0.13-1.06l-7-15C15.74,18.23,15.39,18,15,18c0,0,0,0,0,0
	c-0.39,0-0.74,0.23-0.91,0.58l-6,13c-0.12,0.26-0.12,0.56-0.01,0.82c0.11,0.26,0.33,0.46,0.6,0.55l1.79,0.6l-4.33,6.92
	c-0.17,0.27-0.2,0.61-0.08,0.91c0.12,0.3,0.38,0.52,0.69,0.59l2.67,0.65l-3.3,5.89C5.94,48.85,5.96,49.26,6.18,49.57z M11.82,42.46
	c0.15-0.27,0.17-0.6,0.04-0.89c-0.12-0.29-0.38-0.5-0.68-0.57l-2.6-0.64l4.27-6.83c0.16-0.26,0.2-0.58,0.09-0.87
	c-0.1-0.29-0.33-0.51-0.63-0.61l-1.94-0.65L15,21.38l5.2,11.15l-1.96-0.49c-0.41-0.1-0.83,0.06-1.07,0.41
	c-0.24,0.35-0.23,0.8,0.01,1.14l4.15,5.81l-2.58,0.64c-0.33,0.08-0.6,0.33-0.71,0.66c-0.11,0.33-0.04,0.69,0.18,0.95l3.85,4.62
	l-5.23,0.75C16.37,47.08,16,47.5,16,48v4h-2v-4c0-0.29-0.13-0.57-0.35-0.76c-0.22-0.19-0.52-0.27-0.81-0.22l-3.94,0.66L11.82,42.46z
	"/>
<path d="M19.71,21.85l6.35-6.42l2.22,2.27c0.34,0.34,0.87,0.4,1.27,0.13l2.06-1.37l1.49,2.99C33.28,19.8,33.63,20,34,20
	c0.15,0,0.3-0.03,0.45-0.11l4-2c0.2-0.1,0.36-0.26,0.45-0.46l1.44-2.95l11.02,9.28C51.54,23.92,51.77,24,52,24
	c0.29,0,0.57-0.12,0.77-0.36c0.36-0.42,0.3-1.05-0.12-1.41l-19-16c-0.4-0.33-0.99-0.31-1.36,0.06l-14,14.14
	c-0.39,0.39-0.38,1.03,0.01,1.41C18.69,22.24,19.32,22.24,19.71,21.85z M33.06,8.36l5.7,4.8l-1.51,3.1l-2.8,1.4l-1.55-3.11
	c-0.13-0.26-0.36-0.45-0.64-0.52c-0.28-0.07-0.57-0.02-0.81,0.13l-2.31,1.54l-1.66-1.7L33.06,8.36z"/>
<path d="M53,46H28c-0.55,0-1,0.45-1,1s0.45,1,1,1h2v5c0,0.55,0.45,1,1,1s1-0.45,1-1v-5h17v5c0,0.55,0.45,1,1,1s1-0.45,1-1v-5h2
	c0.55,0,1-0.45,1-1S53.55,46,53,46z"/>
</svg>
