<?xml version="1.0" encoding="utf-8"?>
<!-- Generator: Adobe Illustrator 24.0.2, SVG Export Plug-In . SVG Version: 6.00 Build 0)  -->
<svg version="1.1" id="Layer_3" xmlns="http://www.w3.org/2000/svg" xmlns:xlink="http://www.w3.org/1999/xlink" x="0px" y="0px"
	 viewBox="0 0 60 60" style="enable-background:new 0 0 60 60;" xml:space="preserve">
<path d="M53,14h-2v-3c0-0.55-0.45-1-1-1h-1V7c0-0.55-0.45-1-1-1h-4c-0.55,0-1,0.45-1,1v3h-1c-0.55,0-1,0.45-1,1v3H19v-3
	c0-0.55-0.45-1-1-1h-1V7c0-0.55-0.45-1-1-1h-4c-0.55,0-1,0.45-1,1v3h-1c-0.55,0-1,0.45-1,1v3H7c-0.55,0-1,0.45-1,1v4
	c0,0.55,0.45,1,1,1h1v33c0,0.55,0.45,1,1,1h42c0.55,0,1-0.45,1-1V20h1c0.55,0,1-0.45,1-1v-4C54,14.45,53.55,14,53,14z M45,8h2v2h-2
	V8z M43,12h1h4h1v2h-6V12z M13,8h2v2h-2V8z M11,12h1h4h1v2h-6V12z M10,52v-3h40v3H10z M50,47H10V20h40V47z M52,18h-1H9H8v-2h2h8h24
	h8h2V18z"/>
<path d="M26,36.5h5.8l-5.55,6.34c-0.36,0.42-0.32,1.05,0.09,1.41c0.19,0.17,0.42,0.25,0.66,0.25c0.28,0,0.56-0.12,0.75-0.34l7-8
	c0.26-0.3,0.32-0.71,0.16-1.07c-0.16-0.36-0.52-0.59-0.91-0.59h-6.06l3.87-5.42c0.32-0.45,0.22-1.07-0.23-1.4
	c-0.45-0.32-1.07-0.22-1.4,0.23l-5,7c-0.22,0.3-0.25,0.71-0.08,1.04S25.63,36.5,26,36.5z"/>
</svg>
