<?xml version="1.0" encoding="utf-8"?>
<!-- Generator: Adobe Illustrator 24.0.2, SVG Export Plug-In . SVG Version: 6.00 Build 0)  -->
<svg version="1.1" id="Layer_3" xmlns="http://www.w3.org/2000/svg" xmlns:xlink="http://www.w3.org/1999/xlink" x="0px" y="0px"
	 viewBox="0 0 60 60" style="enable-background:new 0 0 60 60;" xml:space="preserve">
<path d="M23.01,20v6c0,1.65,1.35,3,3,3h12c1.65,0,3-1.35,3-3v-6c0-1.65-1.35-3-3-3h-12C24.35,17,23.01,18.35,23.01,20z M39.01,20v6
	c0,0.55-0.45,1-1,1h-12c-0.55,0-1-0.45-1-1v-6c0-0.55,0.45-1,1-1h12C38.56,19,39.01,19.45,39.01,20z"/>
<path d="M10.01,37.5V44c0,1.65,1.35,3,3,3s3-1.35,3-3v-9h2v13.76l-1.89,3.79c-0.16,0.31-0.14,0.68,0.04,0.97
	c0.18,0.29,0.5,0.47,0.85,0.47h30c0.35,0,0.67-0.18,0.85-0.47c0.18-0.29,0.2-0.66,0.04-0.97l-1.89-3.79V32.21
	c0.55,0.08,1.09,0.14,1.59,0.14c1.5,0,2.77-0.37,3.77-1.12c1.59-1.18,2.47-3.26,2.63-6.19c0.03-0.49-0.3-0.92-0.78-1.03
	c-2.86-0.65-5.1-0.37-6.67,0.83c-0.19,0.14-0.37,0.3-0.54,0.47V15c0-1.65-1.35-3-3-3H28.31c0.54-1.38,0.63-3.11,0.24-5.19
	c-0.09-0.48-0.5-0.79-1-0.81c-2.97,0.05-5.08,0.87-6.3,2.43c-1.03-1.29-2.9-2.37-6.28-2.43c-0.53,0.01-0.91,0.34-1,0.81
	c-1.06,5.57,1.43,7.72,4.03,8.51V33h-3c-0.55,0-1,0.45-1,1v10c0,0.55-0.45,1-1,1s-1-0.45-1-1V30c0-0.38-0.21-0.73-0.55-0.89
	l-3.45-1.72v-3.97l3.71-3.71c0.39-0.39,0.39-1.02,0-1.41s-1.02-0.39-1.41,0l-4,4C6.11,22.48,6.01,22.73,6.01,23v5v6
	c0,0.31,0.15,0.61,0.4,0.8L10.01,37.5z M47.76,26.43c0.94-0.72,2.33-0.93,4.16-0.63c-0.22,1.84-0.81,3.12-1.75,3.83
	c-0.94,0.69-2.31,0.89-4.1,0.58C46.26,28.4,46.83,27.13,47.76,26.43z M18.63,52l1-2h24.76l1,2H18.63z M44.01,15v33h-24V15
	c0-0.55,0.45-1,1-1h22C43.56,14,44.01,14.45,44.01,15z M26.72,8.04c0.22,1.74-0.03,3.05-0.69,3.96h-3.54
	c-0.02-0.5-0.09-0.96-0.2-1.38C22.56,9.84,23.35,8.32,26.72,8.04z M15.8,8.04c3.76,0.31,4.31,2.18,4.5,2.85
	c0.11,0.34,0.16,0.74,0.18,1.16c-0.84,0.15-1.55,0.64-2,1.33C16.84,12.88,15.35,11.66,15.8,8.04z M10.01,30.62V35l-2-1.5v-3.88
	L10.01,30.62z"/>
</svg>
