<?xml version="1.0" encoding="utf-8"?>
<!-- Generator: Adobe Illustrator 24.0.2, SVG Export Plug-In . SVG Version: 6.00 Build 0)  -->
<svg version="1.1" id="Layer_3" xmlns="http://www.w3.org/2000/svg" xmlns:xlink="http://www.w3.org/1999/xlink" x="0px" y="0px"
	 viewBox="0 0 60 60" style="enable-background:new 0 0 60 60;" xml:space="preserve">
<path d="M23.8,41.33c0.81,0.42,1.72,0.63,2.72,0.63c0.77,0,1.6-0.14,2.48-0.38V53c0,0.55,0.45,1,1,1s1-0.45,1-1v-3.43
	c0.88,0.25,1.71,0.38,2.48,0.38c1,0,1.91-0.21,2.72-0.63c1.83-0.94,3.11-2.93,3.82-5.9c0.12-0.5-0.16-1.01-0.65-1.18
	c-2.9-0.99-5.26-0.96-7.03,0.08C31.84,42.62,31.4,43,31,43.45v-10.4c0.88,0.25,1.71,0.38,2.48,0.38c1,0,1.91-0.21,2.72-0.63
	c1.83-0.94,3.11-2.93,3.82-5.9c0.12-0.5-0.16-1.01-0.65-1.18c-2.9-0.99-5.26-0.96-7.03,0.08c-0.5,0.29-0.94,0.67-1.34,1.12v-6
	c3.39-0.49,6-3.4,6-6.92v-3c0-0.55-0.45-1-1-1h-2V7c0-0.55-0.45-1-1-1s-1,0.45-1,1v3h-4V7c0-0.55-0.45-1-1-1s-1,0.45-1,1v3h-2
	c-0.55,0-1,0.45-1,1v3c0,3.52,2.61,6.43,6,6.92v14.53c-0.4-0.45-0.84-0.83-1.34-1.12c-1.77-1.04-4.14-1.07-7.03-0.08
	c-0.49,0.17-0.77,0.68-0.65,1.18C20.69,38.4,21.98,40.39,23.8,41.33z M33.35,44.05c1.08-0.63,2.58-0.7,4.48-0.19
	c-0.58,1.87-1.44,3.11-2.55,3.69c-1.05,0.54-2.44,0.54-4.12-0.01C31.59,45.82,32.33,44.65,33.35,44.05z M33.35,27.53
	c1.08-0.63,2.58-0.7,4.48-0.19c-0.58,1.87-1.44,3.11-2.55,3.69c-1.05,0.54-2.44,0.54-4.12-0.01C31.59,29.3,32.33,28.13,33.35,27.53z
	 M25,14v-2h10v2c0,2.76-2.24,5-5,5S25,16.76,25,14z M26.65,36.05c1.02,0.6,1.76,1.77,2.19,3.49c-1.68,0.55-3.07,0.55-4.12,0.01
	c-1.11-0.57-1.97-1.81-2.55-3.69C24.07,35.35,25.57,35.42,26.65,36.05z"/>
</svg>
