<?xml version="1.0" encoding="utf-8"?>
<!-- Generator: Adobe Illustrator 24.0.2, SVG Export Plug-In . SVG Version: 6.00 Build 0)  -->
<svg version="1.1" id="Layer_3" xmlns="http://www.w3.org/2000/svg" xmlns:xlink="http://www.w3.org/1999/xlink" x="0px" y="0px"
	 viewBox="0 0 60 60" style="enable-background:new 0 0 60 60;" xml:space="preserve">
<path d="M34.96,11.11C34.62,10.42,33.93,10,33.17,10H26.4c-0.76,0-1.45,0.42-1.79,1.11l-1.72,3.45c-0.15,0.31-0.14,0.68,0.04,0.97
	c0.18,0.29,0.5,0.47,0.85,0.47h12c0.35,0,0.67-0.18,0.85-0.47c0.18-0.29,0.2-0.66,0.04-0.97L34.96,11.11z M25.4,14l1-2h6.76l1,2
	H25.4z"/>
<path d="M16,20h1.84l1.71,29h-0.76v-1c0-0.55-0.45-1-1-1s-1,0.45-1,1v4c0,0.55,0.45,1,1,1s1-0.45,1-1v-1h0.88l0.01,0.18
	c0.09,1.58,1.41,2.82,2.99,2.82h14.25c1.57,0,2.88-1.22,2.99-2.79L39.93,51h0.85v1c0,0.55,0.45,1,1,1s1-0.45,1-1v-4
	c0-0.55-0.45-1-1-1s-1,0.45-1,1v1h-0.71l2.07-29H44c0.55,0,1-0.45,1-1s-0.45-1-1-1h-2.03L38.95,7.45C38.71,6.6,37.92,6,37.03,6
	H22.97c-0.89,0-1.68,0.6-1.92,1.45L18.03,18H16c-0.55,0-1,0.45-1,1S15.45,20,16,20z M37.92,51.07c-0.04,0.52-0.48,0.93-1,0.93H22.67
	c-0.53,0-0.97-0.41-1-0.94L19.85,20h20.29L37.92,51.07z M22.97,8h14.06l2.86,10H20.11L22.97,8z"/>
</svg>
